name processed_emg_signals
nRows=57
nColumns=7
 
endheader
time	RGLTMED	RRF	RADDLONG	RST	RTA	RGM
0.0	0.0139699757604846	0.0218602225092602	0.062821101712233	0.0037683396511026	0.0687964369599711	0.0001804830474769
0.001	0.0150947143785283	0.0291921780628796	0.0654767515019919	0.004984729995046	0.0765062094305354	0.0011763612312056
0.002	0.0162367345273266	0.0365111908269248	0.0681460813507893	0.0061978385800689	0.0841758729450578	0.0021681705680506
0.003	0.0173955046670826	0.0438123695635811	0.0708271289637794	0.0074067647861898	0.0917997326422678	0.003155289165613
0.004	0.0185704712178932	0.0510908306473771	0.0735179039857292	0.0086106066722577	0.0993721392842191	0.0041371004146645
0.005	0.0197610589848405	0.058341705115388	0.0762163908158266	0.0098084621968353	0.1068874989175823	0.005112993889613
0.006	0.0209666716075366	0.0655601456936148	0.0789205514795673	0.0109994304464353	0.1143402824326511	0.0060823662383797
0.007	0.0221866920325975	0.0727413337808918	0.081628328549815	0.0121826128687417	0.1217250349854044	0.0070446220594142
0.008	0.0234204830075863	0.0798804863728229	0.0843376481100601	0.0133571145084128	0.129036385250861	0.0079991747637388
0.009000000000000001	0.0246673875951777	0.0869728629099521	0.0870464227533296	0.0145220452432939	0.1362690544794859	0.00894544742011
0.01	0.0259267297064441	0.0940137720356431	0.0897525546107676	0.015676521018854	0.1434178653322613	0.0098828735814496
0.011	0.0271978146522931	0.1009985782500287	0.0924539384037573	0.0168196650789271	0.1504777504737833	0.0108108980908351
0.012	0.0284799297122988	0.1079227084473805	0.0951484645138552	0.0179506091909714	0.1574437609058939	0.0117289778653706
0.013000000000000001	0.0297723447201956	0.1147816583244231	0.0978340220646709	0.0190684948641914	0.1643110740265208	0.0126365826563045
0.014	0.0310743126654052	0.1215709986479794	0.100508502010458	0.0201724745591348	0.1710750013999027	0.0135331957838912
0.015	0.032385070309986	0.1282863813707133	0.1031698002257101	0.0212617128874241	0.1777309962251156	0.0144183148455123
0.016	0.0337038388203679	0.134923545584938	0.1058158205909802	0.0223353878004615	0.1842746604902123	0.0152914523957278
0.017	0.035029824413322	0.1414783233054383	0.1084444780695968	0.0233926917659869	0.1907017517992194	0.0161521365969462
0.018000000000000002	0.0363622190154893	0.14794664507362	0.1110537017704208	0.0244328329314749	0.197008189859299	0.0169999118394691
0.019	0.0377002009359222	0.154324545375637	0.1136414379916833	0.0254550362733521	0.2031900626152492	0.0178343393297997
0.02	0.0390429355510448	0.1606081678681898	0.1162056532410462	0.0264585447311106	0.2092436320186672	0.0186549976460744
0.021	0.0403895760014408	0.1667937704060405	0.1187443372270876	0.0274426203254466	0.2151653394193934	0.0194614832596423
0.022	0.0417392638999072	0.1728777298655894	0.1212555058173683	0.0284065452595255	0.2209518105674021	0.0202534110217607
0.023	0.0430911300502913	0.1788565467594117	0.1237372039583823	0.0293496230024554	0.2265998602140126	0.0210304146144413
0.024	0.0444442951766971	0.1847268496360814	0.1261875085527831	0.0302711793540162	0.2321064963019282	0.0217921469644879
0.025	0.0457978706630657	0.1904853992604628	0.1286045312889688	0.0311705634896867	0.2374689237344628	0.0225382806198265
0.026000000000000002	0.0471509593033783	0.1961290925684072	0.1309864214181094	0.0320471489848656	0.2426845477152567	0.0232685080873658
0.027	0.0485026560630398	0.2016549663909119	0.1333313684735433	0.0329003348172633	0.2477509766511695	0.0239825421316889
0.028	0.0498520488521895	0.2070602009417727	0.135637604927638	0.0337295463462791	0.2526660246128772	0.0246801160341809
0.029	0.0511982193116851	0.2123421230632894	0.1379034087817555	0.0345342362682485	0.2574277133503824	0.0253609838122727
0.03	0.0525402436125609	0.2174982092242583	0.140127106085647	0.0353138855464123	0.2620342738636903	0.0260249203987488
0.031	0.0538771932696459	0.2225260882647184	0.1423070733835182	0.0360680043145323	0.2664841475319415	0.0266717217812886
0.032	0.0552081359700624	0.2274235438819788	0.1444417400841265	0.036796132753116	0.2707759868068453	0.0273012051024853
0.033	0.0565321364172668	0.2321885168527507	0.1465295907531588	0.0374978419372048	0.2749086554784148	0.0279132087208661
0.034	0.057848257191248	0.2368191069853234	0.1485691673256003	0.0381727346548537	0.2788812285226976	0.0285075922334676
0.035	0.0591555596253023	0.2413135747962188	0.1505590712367955	0.038820446195458	0.2826929915424861	0.0290842364607379
0.036000000000000004	0.0604531046997409	0.2456703429045525	0.1524979654706414	0.0394406451072114	0.2863434398130301	0.029643043394577
0.037	0.0617399539526358	0.2498879971376817	0.154384576524066	0.0400330339231999	0.2898322769454454	0.0301839361104625
0.038	0.0630151704075888	0.2539652873417098	0.1562176962865525	0.0405973498556067	0.2931594131811352	0.0307068586446011
0.039	0.0642778195183841	0.2579011278906921	0.1579961838337614	0.0411333654576628	0.2963249633311596	0.0312117758371622
0.04	0.0655269701302054	0.2616945978897851	0.1597189671338646	0.0416408892529154	0.2993292443750922	0.0316986731427267
0.041	0.0667616954570058	0.2653449410680608	0.1613850446657597	0.04211976633146	0.3021727727346056	0.0321675564091779
0.042	0.0679810740744706	0.2688515653585832	0.1629934869475161	0.0425698789127084	0.3048562612375722	0.0326184516262918
0.043000000000000003	0.0691841909278422	0.2722140421642597	0.1645434379735952	0.0429911468742761	0.3073806157887686	0.0330514046454734
0.044	0.0703701383537391	0.2754321053102574	0.1660341165588891	0.0433835282466021	0.3097469317634254	0.0334664808720255
0.045	0.0715380171150414	0.2785056496863165	0.1674648175871269	0.0437470196729681	0.3119564901400382	0.0338637649314212
0.046	0.072686937447721	0.2814347295845728	0.1688349131607036	0.0440816568344305	0.3140107533891876	0.0342433603110613
0.047	0.0738160201184874	0.2842195567408255	0.1701438536490564	0.0443875148393486	0.315911361135494	0.0346053889789045
0.048	0.0749243974919788	0.2868604980892938	0.1713911686324963	0.0446647085771086	0.3176601256100895	0.0349499909804018
0.049	0.0760112146061487	0.2893580732420231	0.1725764677383889	0.0449133930355673	0.319259026911003	0.0352773240150052
0.05	0.0770756302544037	0.2917129517056828	0.1736994413673788	0.0451337635820322	0.3207102080886786	0.035587562993596
0.051000000000000004	0.078116818072824	0.2939259498496738	0.1747598613072213	0.0453260562073885	0.3220159700734362	0.0358808995780187
0.052000000000000005	0.079133967630627	0.2959980276403655	0.1757575812325597	0.0454905477332429	0.3231787664609783	0.0361575417039598
0.053	0.0801262855219139	0.2979302851567602	0.1766925370899032	0.0456275559818035	0.3242011981713284	0.036417713088373
0.054	0.0810929964565918	0.2997239589028848	0.1775647473671054	0.0457374399082144	0.3250860079958598	0.0366616527225877
0.055	0.0820333443483452	0.3013804179321304	0.1783743132478694	0.0458205996950606	0.3258360750467341	0.0368896143521596
0.056	0.0829465933974482	0.3029011597976611	0.1791214186521093	0.0458774768086498	0.326454409122617	0.037101865944481
